%TF.GenerationSoftware,KiCad,Pcbnew,9.0.6*%
%TF.CreationDate,2025-12-07T16:06:48+02:00*%
%TF.ProjectId,BLUETOOTH_SPEAKER,424c5545-544f-44f5-9448-5f535045414b,rev?*%
%TF.SameCoordinates,Original*%
%TF.FileFunction,Paste,Top*%
%TF.FilePolarity,Positive*%
%FSLAX46Y46*%
G04 Gerber Fmt 4.6, Leading zero omitted, Abs format (unit mm)*
G04 Created by KiCad (PCBNEW 9.0.6) date 2025-12-07 16:06:48*
%MOMM*%
%LPD*%
G01*
G04 APERTURE LIST*
G04 Aperture macros list*
%AMRoundRect*
0 Rectangle with rounded corners*
0 $1 Rounding radius*
0 $2 $3 $4 $5 $6 $7 $8 $9 X,Y pos of 4 corners*
0 Add a 4 corners polygon primitive as box body*
4,1,4,$2,$3,$4,$5,$6,$7,$8,$9,$2,$3,0*
0 Add four circle primitives for the rounded corners*
1,1,$1+$1,$2,$3*
1,1,$1+$1,$4,$5*
1,1,$1+$1,$6,$7*
1,1,$1+$1,$8,$9*
0 Add four rect primitives between the rounded corners*
20,1,$1+$1,$2,$3,$4,$5,0*
20,1,$1+$1,$4,$5,$6,$7,0*
20,1,$1+$1,$6,$7,$8,$9,0*
20,1,$1+$1,$8,$9,$2,$3,0*%
G04 Aperture macros list end*
%ADD10C,0.010000*%
%ADD11RoundRect,0.250000X-0.350000X-0.450000X0.350000X-0.450000X0.350000X0.450000X-0.350000X0.450000X0*%
%ADD12RoundRect,0.250000X-0.475000X0.337500X-0.475000X-0.337500X0.475000X-0.337500X0.475000X0.337500X0*%
%ADD13RoundRect,0.250000X0.650000X-0.412500X0.650000X0.412500X-0.650000X0.412500X-0.650000X-0.412500X0*%
%ADD14RoundRect,0.150000X0.150000X-0.825000X0.150000X0.825000X-0.150000X0.825000X-0.150000X-0.825000X0*%
%ADD15RoundRect,0.250000X1.100000X-0.412500X1.100000X0.412500X-1.100000X0.412500X-1.100000X-0.412500X0*%
%ADD16RoundRect,0.250000X0.412500X1.100000X-0.412500X1.100000X-0.412500X-1.100000X0.412500X-1.100000X0*%
%ADD17RoundRect,0.250000X-0.337500X-0.475000X0.337500X-0.475000X0.337500X0.475000X-0.337500X0.475000X0*%
%ADD18RoundRect,0.250001X-0.462499X-1.074999X0.462499X-1.074999X0.462499X1.074999X-0.462499X1.074999X0*%
%ADD19RoundRect,0.250000X0.325000X0.650000X-0.325000X0.650000X-0.325000X-0.650000X0.325000X-0.650000X0*%
%ADD20RoundRect,0.033750X0.346250X0.101250X-0.346250X0.101250X-0.346250X-0.101250X0.346250X-0.101250X0*%
%ADD21RoundRect,0.250000X0.350000X0.450000X-0.350000X0.450000X-0.350000X-0.450000X0.350000X-0.450000X0*%
%ADD22RoundRect,0.250000X0.475000X-0.337500X0.475000X0.337500X-0.475000X0.337500X-0.475000X-0.337500X0*%
%ADD23RoundRect,0.237500X-0.300000X-0.237500X0.300000X-0.237500X0.300000X0.237500X-0.300000X0.237500X0*%
%ADD24RoundRect,0.237500X0.250000X0.237500X-0.250000X0.237500X-0.250000X-0.237500X0.250000X-0.237500X0*%
%ADD25RoundRect,0.250000X-1.100000X0.412500X-1.100000X-0.412500X1.100000X-0.412500X1.100000X0.412500X0*%
%ADD26RoundRect,0.237500X0.237500X-0.300000X0.237500X0.300000X-0.237500X0.300000X-0.237500X-0.300000X0*%
%ADD27RoundRect,0.250000X-0.400000X-1.075000X0.400000X-1.075000X0.400000X1.075000X-0.400000X1.075000X0*%
%ADD28RoundRect,0.250000X0.450000X-0.350000X0.450000X0.350000X-0.450000X0.350000X-0.450000X-0.350000X0*%
%ADD29RoundRect,0.250000X0.337500X0.475000X-0.337500X0.475000X-0.337500X-0.475000X0.337500X-0.475000X0*%
%ADD30RoundRect,0.250000X1.075000X-0.400000X1.075000X0.400000X-1.075000X0.400000X-1.075000X-0.400000X0*%
%ADD31RoundRect,0.135000X-0.135000X-0.185000X0.135000X-0.185000X0.135000X0.185000X-0.135000X0.185000X0*%
%ADD32RoundRect,0.150000X0.150000X-0.587500X0.150000X0.587500X-0.150000X0.587500X-0.150000X-0.587500X0*%
%ADD33RoundRect,0.150000X-0.512500X-0.150000X0.512500X-0.150000X0.512500X0.150000X-0.512500X0.150000X0*%
%ADD34RoundRect,0.237500X-0.237500X0.300000X-0.237500X-0.300000X0.237500X-0.300000X0.237500X0.300000X0*%
%ADD35R,1.160000X0.600000*%
%ADD36R,1.160000X0.300000*%
%ADD37RoundRect,0.250000X-1.075000X0.400000X-1.075000X-0.400000X1.075000X-0.400000X1.075000X0.400000X0*%
%ADD38RoundRect,0.237500X-0.250000X-0.237500X0.250000X-0.237500X0.250000X0.237500X-0.250000X0.237500X0*%
%ADD39RoundRect,0.112500X0.112500X-0.187500X0.112500X0.187500X-0.112500X0.187500X-0.112500X-0.187500X0*%
%ADD40RoundRect,0.250000X-0.450000X0.350000X-0.450000X-0.350000X0.450000X-0.350000X0.450000X0.350000X0*%
%ADD41R,5.400000X2.900000*%
%ADD42R,0.850000X0.920000*%
%ADD43R,0.250000X0.750000*%
%ADD44RoundRect,0.050400X-0.249600X0.069600X-0.249600X-0.069600X0.249600X-0.069600X0.249600X0.069600X0*%
%ADD45RoundRect,0.050400X-0.069600X0.249600X-0.069600X-0.249600X0.069600X-0.249600X0.069600X0.249600X0*%
%ADD46RoundRect,0.050000X-0.250000X0.050000X-0.250000X-0.050000X0.250000X-0.050000X0.250000X0.050000X0*%
%ADD47RoundRect,0.250000X-0.255000X-0.440000X0.255000X-0.440000X0.255000X0.440000X-0.255000X0.440000X0*%
%ADD48RoundRect,0.150000X-0.825000X-0.150000X0.825000X-0.150000X0.825000X0.150000X-0.825000X0.150000X0*%
%ADD49RoundRect,0.250000X0.400000X1.075000X-0.400000X1.075000X-0.400000X-1.075000X0.400000X-1.075000X0*%
%ADD50RoundRect,0.100000X0.637500X0.100000X-0.637500X0.100000X-0.637500X-0.100000X0.637500X-0.100000X0*%
%ADD51R,2.900000X5.400000*%
%ADD52R,0.900000X1.500000*%
%ADD53R,1.500000X0.900000*%
%ADD54R,1.050000X1.050000*%
%ADD55RoundRect,0.102500X-0.682500X-0.102500X0.682500X-0.102500X0.682500X0.102500X-0.682500X0.102500X0*%
G04 APERTURE END LIST*
D10*
%TO.C,U8*%
X54470000Y-97990000D02*
X53910000Y-97990000D01*
X53910000Y-97170000D01*
X54470000Y-97170000D01*
X54470000Y-97990000D01*
G36*
X54470000Y-97990000D02*
G01*
X53910000Y-97990000D01*
X53910000Y-97170000D01*
X54470000Y-97170000D01*
X54470000Y-97990000D01*
G37*
%TO.C,U1*%
X85235000Y-112570000D02*
X83935000Y-112570000D01*
X83935000Y-111220000D01*
X85235000Y-111220000D01*
X85235000Y-112570000D01*
G36*
X85235000Y-112570000D02*
G01*
X83935000Y-112570000D01*
X83935000Y-111220000D01*
X85235000Y-111220000D01*
X85235000Y-112570000D01*
G37*
X85235000Y-114290000D02*
X83935000Y-114290000D01*
X83935000Y-112940000D01*
X85235000Y-112940000D01*
X85235000Y-114290000D01*
G36*
X85235000Y-114290000D02*
G01*
X83935000Y-114290000D01*
X83935000Y-112940000D01*
X85235000Y-112940000D01*
X85235000Y-114290000D01*
G37*
X86905000Y-112570000D02*
X85605000Y-112570000D01*
X85605000Y-111220000D01*
X86905000Y-111220000D01*
X86905000Y-112570000D01*
G36*
X86905000Y-112570000D02*
G01*
X85605000Y-112570000D01*
X85605000Y-111220000D01*
X86905000Y-111220000D01*
X86905000Y-112570000D01*
G37*
X86905000Y-114290000D02*
X85605000Y-114290000D01*
X85605000Y-112940000D01*
X86905000Y-112940000D01*
X86905000Y-114290000D01*
G36*
X86905000Y-114290000D02*
G01*
X85605000Y-114290000D01*
X85605000Y-112940000D01*
X86905000Y-112940000D01*
X86905000Y-114290000D01*
G37*
%TD*%
D11*
%TO.C,R19*%
X152152500Y-128116000D03*
X154152500Y-128116000D03*
%TD*%
D12*
%TO.C,C50*%
X152630000Y-115222500D03*
X152630000Y-117297500D03*
%TD*%
D13*
%TO.C,C29*%
X74035000Y-123552500D03*
X74035000Y-120427500D03*
%TD*%
D14*
%TO.C,U4*%
X163575000Y-110332500D03*
X164845000Y-110332500D03*
X166115000Y-110332500D03*
X167385000Y-110332500D03*
X168655000Y-110332500D03*
X169925000Y-110332500D03*
X171195000Y-110332500D03*
X172465000Y-110332500D03*
X172465000Y-105382500D03*
X171195000Y-105382500D03*
X169925000Y-105382500D03*
X168655000Y-105382500D03*
X167385000Y-105382500D03*
X166115000Y-105382500D03*
X164845000Y-105382500D03*
X163575000Y-105382500D03*
%TD*%
D15*
%TO.C,C3*%
X90487500Y-105777500D03*
X90487500Y-102652500D03*
%TD*%
D16*
%TO.C,C38*%
X162402500Y-113220000D03*
X159277500Y-113220000D03*
%TD*%
D17*
%TO.C,C28*%
X77185000Y-133280000D03*
X79260000Y-133280000D03*
%TD*%
D18*
%TO.C,D5*%
X70852500Y-93210000D03*
X73827500Y-93210000D03*
%TD*%
D19*
%TO.C,C27*%
X79190000Y-113920000D03*
X76240000Y-113920000D03*
%TD*%
D20*
%TO.C,U8*%
X55175000Y-98330000D03*
X55175000Y-97830000D03*
X55175000Y-97330000D03*
X55175000Y-96830000D03*
X53205000Y-96830000D03*
X53205000Y-97330000D03*
X53205000Y-97830000D03*
X53205000Y-98330000D03*
%TD*%
D21*
%TO.C,R11*%
X165760000Y-120420000D03*
X163760000Y-120420000D03*
%TD*%
D22*
%TO.C,C37*%
X61650000Y-126647500D03*
X61650000Y-124572500D03*
%TD*%
D12*
%TO.C,C7*%
X94960000Y-109392500D03*
X94960000Y-111467500D03*
%TD*%
D23*
%TO.C,C4*%
X91147500Y-117855000D03*
X92872500Y-117855000D03*
%TD*%
D12*
%TO.C,C36*%
X52530000Y-124890000D03*
X52530000Y-126965000D03*
%TD*%
D17*
%TO.C,C51*%
X154362500Y-105400000D03*
X156437500Y-105400000D03*
%TD*%
D24*
%TO.C,R2*%
X118417500Y-96230000D03*
X116592500Y-96230000D03*
%TD*%
D18*
%TO.C,D7*%
X59852500Y-93210000D03*
X62827500Y-93210000D03*
%TD*%
D25*
%TO.C,C6*%
X90450000Y-119582500D03*
X90450000Y-122707500D03*
%TD*%
D26*
%TO.C,C16*%
X116705000Y-94560000D03*
X116705000Y-92835000D03*
%TD*%
D27*
%TO.C,R20*%
X148155000Y-106485000D03*
X151255000Y-106485000D03*
%TD*%
D11*
%TO.C,R15*%
X157067500Y-91620000D03*
X159067500Y-91620000D03*
%TD*%
D28*
%TO.C,R28*%
X70852500Y-98210000D03*
X70852500Y-96210000D03*
%TD*%
D11*
%TO.C,R14*%
X163760000Y-117420000D03*
X165760000Y-117420000D03*
%TD*%
D29*
%TO.C,C53*%
X147035000Y-114485000D03*
X144960000Y-114485000D03*
%TD*%
D30*
%TO.C,R6*%
X76997500Y-105750000D03*
X76997500Y-102650000D03*
%TD*%
D31*
%TO.C,R26*%
X75850000Y-112090000D03*
X76870000Y-112090000D03*
%TD*%
D32*
%TO.C,Q1*%
X172732500Y-102815000D03*
X174632500Y-102815000D03*
X173682500Y-100940000D03*
%TD*%
D33*
%TO.C,U5*%
X163350000Y-95877500D03*
X163350000Y-96827500D03*
X163350000Y-97777500D03*
X165625000Y-97777500D03*
X165625000Y-95877500D03*
%TD*%
D26*
%TO.C,C32*%
X77385000Y-122607500D03*
X77385000Y-120882500D03*
%TD*%
D34*
%TO.C,C20*%
X118305000Y-92817500D03*
X118305000Y-94542500D03*
%TD*%
D26*
%TO.C,C15*%
X104500000Y-94162500D03*
X104500000Y-92437500D03*
%TD*%
D35*
%TO.C,J3*%
X167901500Y-122401000D03*
X167901500Y-121601000D03*
D36*
X167901500Y-120451000D03*
X167901500Y-119451000D03*
X167901500Y-118951000D03*
X167901500Y-117951000D03*
D35*
X167901500Y-116801000D03*
X167901500Y-116001000D03*
X167901500Y-116001000D03*
X167901500Y-116801000D03*
D36*
X167901500Y-117451000D03*
X167901500Y-118451000D03*
X167901500Y-119951000D03*
X167901500Y-120951000D03*
D35*
X167901500Y-121601000D03*
X167901500Y-122401000D03*
%TD*%
D37*
%TO.C,R21*%
X155330000Y-114820000D03*
X155330000Y-117920000D03*
%TD*%
D32*
%TO.C,Q3*%
X159707500Y-95137500D03*
X161607500Y-95137500D03*
X160657500Y-93262500D03*
%TD*%
D38*
%TO.C,R1*%
X104430000Y-95967500D03*
X106255000Y-95967500D03*
%TD*%
D30*
%TO.C,R24*%
X146400000Y-121650000D03*
X146400000Y-118550000D03*
%TD*%
D23*
%TO.C,C1*%
X91097500Y-107525000D03*
X92822500Y-107525000D03*
%TD*%
D39*
%TO.C,D1*%
X157977500Y-95590000D03*
X157977500Y-93490000D03*
%TD*%
D12*
%TO.C,C41*%
X146022500Y-130398500D03*
X146022500Y-132473500D03*
%TD*%
D34*
%TO.C,C21*%
X115350000Y-130722500D03*
X115350000Y-132447500D03*
%TD*%
D40*
%TO.C,R9*%
X65510000Y-125770000D03*
X65510000Y-127770000D03*
%TD*%
D29*
%TO.C,C43*%
X160941250Y-97230000D03*
X158866250Y-97230000D03*
%TD*%
D17*
%TO.C,C25*%
X77100000Y-116160000D03*
X79175000Y-116160000D03*
%TD*%
D41*
%TO.C,L1*%
X102535000Y-109005000D03*
X102535000Y-99105000D03*
%TD*%
%TO.C,L3*%
X115410000Y-109005000D03*
X115410000Y-99105000D03*
%TD*%
%TO.C,L4*%
X102660000Y-116080000D03*
X102660000Y-125980000D03*
%TD*%
D30*
%TO.C,R5*%
X80267500Y-105750000D03*
X80267500Y-102650000D03*
%TD*%
D22*
%TO.C,C44*%
X166477500Y-94070000D03*
X166477500Y-91995000D03*
%TD*%
D30*
%TO.C,R22*%
X154800000Y-111950000D03*
X154800000Y-108850000D03*
%TD*%
D29*
%TO.C,C2*%
X87947500Y-105305000D03*
X85872500Y-105305000D03*
%TD*%
D12*
%TO.C,C9*%
X92110000Y-113685000D03*
X92110000Y-115760000D03*
%TD*%
D18*
%TO.C,D6*%
X65352500Y-93210000D03*
X68327500Y-93210000D03*
%TD*%
D16*
%TO.C,C46*%
X146117500Y-106505000D03*
X142992500Y-106505000D03*
%TD*%
D28*
%TO.C,R7*%
X79547500Y-126470000D03*
X79547500Y-124470000D03*
%TD*%
D22*
%TO.C,C42*%
X164397500Y-94100000D03*
X164397500Y-92025000D03*
%TD*%
D26*
%TO.C,C19*%
X106300000Y-94162500D03*
X106300000Y-92437500D03*
%TD*%
D34*
%TO.C,C22*%
X106225000Y-130812500D03*
X106225000Y-132537500D03*
%TD*%
D29*
%TO.C,C30*%
X79247500Y-131120000D03*
X77172500Y-131120000D03*
%TD*%
D18*
%TO.C,D2*%
X156392500Y-124776000D03*
X159367500Y-124776000D03*
%TD*%
D12*
%TO.C,C14*%
X102300000Y-130625000D03*
X102300000Y-132700000D03*
%TD*%
D29*
%TO.C,C45*%
X145570000Y-103485000D03*
X143495000Y-103485000D03*
%TD*%
D42*
%TO.C,U7*%
X148355000Y-110645000D03*
X147305000Y-110645000D03*
X146255000Y-110645000D03*
D43*
X149105000Y-111205000D03*
X145505000Y-111205000D03*
D42*
X148355000Y-111765000D03*
X147305000Y-111765000D03*
X146255000Y-111765000D03*
D44*
X149455000Y-110455000D03*
D45*
X149055000Y-109555000D03*
X148555000Y-109555000D03*
X148055000Y-109555000D03*
X147555000Y-109555000D03*
X147055000Y-109555000D03*
X146555000Y-109555000D03*
X146055000Y-109555000D03*
X145555000Y-109555000D03*
D44*
X145155000Y-110455000D03*
X145155000Y-111955000D03*
D45*
X145555000Y-112855000D03*
X146055000Y-112855000D03*
X146555000Y-112855000D03*
X147055000Y-112855000D03*
X147555000Y-112855000D03*
X148055000Y-112855000D03*
X148555000Y-112855000D03*
X149055000Y-112855000D03*
D44*
X149455000Y-111955000D03*
D46*
X149455000Y-110930000D03*
X145155000Y-110930000D03*
X149455000Y-111480000D03*
X145155000Y-111480000D03*
%TD*%
D34*
%TO.C,C17*%
X113775000Y-130722500D03*
X113775000Y-132447500D03*
%TD*%
D28*
%TO.C,R8*%
X77362500Y-126470000D03*
X77362500Y-124470000D03*
%TD*%
D22*
%TO.C,C8*%
X92110000Y-111792500D03*
X92110000Y-109717500D03*
%TD*%
D27*
%TO.C,R12*%
X167442500Y-102237500D03*
X170542500Y-102237500D03*
%TD*%
D32*
%TO.C,Q2*%
X163150000Y-102635000D03*
X165050000Y-102635000D03*
X164100000Y-100760000D03*
%TD*%
D26*
%TO.C,C31*%
X79510000Y-122607500D03*
X79510000Y-120882500D03*
%TD*%
D17*
%TO.C,C24*%
X76812500Y-110140000D03*
X78887500Y-110140000D03*
%TD*%
D28*
%TO.C,R27*%
X76352500Y-98210000D03*
X76352500Y-96210000D03*
%TD*%
D12*
%TO.C,C13*%
X111775000Y-130410000D03*
X111775000Y-132485000D03*
%TD*%
D28*
%TO.C,R30*%
X59840000Y-98210000D03*
X59840000Y-96210000D03*
%TD*%
D22*
%TO.C,C48*%
X151085000Y-111892500D03*
X151085000Y-109817500D03*
%TD*%
D41*
%TO.C,L2*%
X115585000Y-116055000D03*
X115585000Y-125955000D03*
%TD*%
D11*
%TO.C,R18*%
X152162500Y-126116000D03*
X154162500Y-126116000D03*
%TD*%
D29*
%TO.C,C5*%
X87920000Y-119770000D03*
X85845000Y-119770000D03*
%TD*%
D47*
%TO.C,U6*%
X146557500Y-125856000D03*
X146557500Y-127506000D03*
X147757500Y-125856000D03*
X147757500Y-127506000D03*
D48*
X144682500Y-124776000D03*
X144682500Y-126046000D03*
X144682500Y-127316000D03*
X144682500Y-128586000D03*
X149632500Y-128586000D03*
X149632500Y-127316000D03*
X149632500Y-126046000D03*
X149632500Y-124776000D03*
%TD*%
D29*
%TO.C,C52*%
X147012500Y-116525000D03*
X144937500Y-116525000D03*
%TD*%
D37*
%TO.C,R23*%
X149900000Y-115050000D03*
X149900000Y-118150000D03*
%TD*%
D24*
%TO.C,R4*%
X106212500Y-129162500D03*
X104387500Y-129162500D03*
%TD*%
D17*
%TO.C,C26*%
X77100000Y-118180000D03*
X79175000Y-118180000D03*
%TD*%
D12*
%TO.C,C49*%
X143505000Y-110547500D03*
X143505000Y-112622500D03*
%TD*%
D22*
%TO.C,C10*%
X94910000Y-116192500D03*
X94910000Y-114117500D03*
%TD*%
D30*
%TO.C,R13*%
X160680000Y-108217500D03*
X160680000Y-105117500D03*
%TD*%
D34*
%TO.C,C35*%
X54510000Y-125057500D03*
X54510000Y-126782500D03*
%TD*%
D28*
%TO.C,R17*%
X141802500Y-128016000D03*
X141802500Y-126016000D03*
%TD*%
D49*
%TO.C,R10*%
X59530000Y-125890000D03*
X56430000Y-125890000D03*
%TD*%
D24*
%TO.C,R3*%
X115600000Y-129100000D03*
X113775000Y-129100000D03*
%TD*%
D40*
%TO.C,R16*%
X148292500Y-130406000D03*
X148292500Y-132406000D03*
%TD*%
D31*
%TO.C,R25*%
X78570000Y-112090000D03*
X79590000Y-112090000D03*
%TD*%
D28*
%TO.C,R29*%
X65352500Y-98210000D03*
X65352500Y-96210000D03*
%TD*%
D29*
%TO.C,C47*%
X149402500Y-103485000D03*
X147327500Y-103485000D03*
%TD*%
D50*
%TO.C,U2*%
X74085000Y-131070000D03*
X74085000Y-130420000D03*
X74085000Y-129770000D03*
X74085000Y-129120000D03*
X74085000Y-128470000D03*
X74085000Y-127820000D03*
X74085000Y-127170000D03*
X74085000Y-126520000D03*
X74085000Y-125870000D03*
X74085000Y-125220000D03*
X68360000Y-125220000D03*
X68360000Y-125870000D03*
X68360000Y-126520000D03*
X68360000Y-127170000D03*
X68360000Y-127820000D03*
X68360000Y-128470000D03*
X68360000Y-129120000D03*
X68360000Y-129770000D03*
X68360000Y-130420000D03*
X68360000Y-131070000D03*
%TD*%
D17*
%TO.C,C23*%
X76812500Y-107990000D03*
X78887500Y-107990000D03*
%TD*%
D18*
%TO.C,D3*%
X156377500Y-128206000D03*
X159352500Y-128206000D03*
%TD*%
D51*
%TO.C,L5*%
X143560000Y-95570000D03*
X153460000Y-95570000D03*
%TD*%
D18*
%TO.C,D4*%
X76352500Y-93210000D03*
X79327500Y-93210000D03*
%TD*%
D52*
%TO.C,U3*%
X51635000Y-121595000D03*
X52905000Y-121595000D03*
X54175000Y-121595000D03*
X55445000Y-121595000D03*
X56715000Y-121595000D03*
X57985000Y-121595000D03*
X59255000Y-121595000D03*
X60525000Y-121595000D03*
X61795000Y-121595000D03*
X63065000Y-121595000D03*
X64335000Y-121595000D03*
X65605000Y-121595000D03*
X66875000Y-121595000D03*
X68145000Y-121595000D03*
D53*
X69395000Y-118555000D03*
X69395000Y-117285000D03*
X69395000Y-116015000D03*
X69395000Y-114745000D03*
X69395000Y-113475000D03*
X69395000Y-112205000D03*
X69395000Y-110935000D03*
X69395000Y-109665000D03*
X69395000Y-108395000D03*
X69395000Y-107125000D03*
D52*
X68145000Y-104095000D03*
X66875000Y-104095000D03*
X65605000Y-104095000D03*
X64335000Y-104095000D03*
X63065000Y-104095000D03*
X61795000Y-104095000D03*
X60525000Y-104095000D03*
X59255000Y-104095000D03*
X57985000Y-104095000D03*
X56715000Y-104095000D03*
X55445000Y-104095000D03*
X54175000Y-104095000D03*
X52905000Y-104095000D03*
X51635000Y-104095000D03*
D54*
X57450000Y-115050000D03*
X58975000Y-115050000D03*
X60500000Y-115050000D03*
X57450000Y-113525000D03*
X58975000Y-113525000D03*
X60500000Y-113525000D03*
X57450000Y-112000000D03*
X58975000Y-112000000D03*
X60500000Y-112000000D03*
%TD*%
D34*
%TO.C,C18*%
X104375000Y-130800000D03*
X104375000Y-132525000D03*
%TD*%
D22*
%TO.C,C11*%
X102500000Y-94937500D03*
X102500000Y-92862500D03*
%TD*%
D12*
%TO.C,C33*%
X65485000Y-129757500D03*
X65485000Y-131832500D03*
%TD*%
D55*
%TO.C,U1*%
X81700000Y-107880000D03*
X81700000Y-108530000D03*
X81700000Y-109180000D03*
X81700000Y-109830000D03*
X81700000Y-110480000D03*
X81700000Y-111130000D03*
X81700000Y-111780000D03*
X81700000Y-112430000D03*
X81700000Y-113080000D03*
X81700000Y-113730000D03*
X81700000Y-114380000D03*
X81700000Y-115030000D03*
X81700000Y-115680000D03*
X81700000Y-116330000D03*
X81700000Y-116980000D03*
X81700000Y-117630000D03*
X89140000Y-117630000D03*
X89140000Y-116980000D03*
X89140000Y-116330000D03*
X89140000Y-115680000D03*
X89140000Y-115030000D03*
X89140000Y-114380000D03*
X89140000Y-113730000D03*
X89140000Y-113080000D03*
X89140000Y-112430000D03*
X89140000Y-111780000D03*
X89140000Y-111130000D03*
X89140000Y-110480000D03*
X89140000Y-109830000D03*
X89140000Y-109180000D03*
X89140000Y-108530000D03*
X89140000Y-107880000D03*
%TD*%
D25*
%TO.C,C40*%
X152852500Y-130063500D03*
X152852500Y-133188500D03*
%TD*%
D22*
%TO.C,C12*%
X114730000Y-95105000D03*
X114730000Y-93030000D03*
%TD*%
D17*
%TO.C,C34*%
X77272500Y-128845000D03*
X79347500Y-128845000D03*
%TD*%
D29*
%TO.C,C39*%
X161467500Y-110447500D03*
X159392500Y-110447500D03*
%TD*%
M02*
