%TF.GenerationSoftware,KiCad,Pcbnew,9.0.6*%
%TF.CreationDate,2025-12-07T16:06:48+02:00*%
%TF.ProjectId,BLUETOOTH_SPEAKER,424c5545-544f-44f5-9448-5f535045414b,rev?*%
%TF.SameCoordinates,Original*%
%TF.FileFunction,Soldermask,Bot*%
%TF.FilePolarity,Negative*%
%FSLAX46Y46*%
G04 Gerber Fmt 4.6, Leading zero omitted, Abs format (unit mm)*
G04 Created by KiCad (PCBNEW 9.0.6) date 2025-12-07 16:06:48*
%MOMM*%
%LPD*%
G01*
G04 APERTURE LIST*
G04 Aperture macros list*
%AMRoundRect*
0 Rectangle with rounded corners*
0 $1 Rounding radius*
0 $2 $3 $4 $5 $6 $7 $8 $9 X,Y pos of 4 corners*
0 Add a 4 corners polygon primitive as box body*
4,1,4,$2,$3,$4,$5,$6,$7,$8,$9,$2,$3,0*
0 Add four circle primitives for the rounded corners*
1,1,$1+$1,$2,$3*
1,1,$1+$1,$4,$5*
1,1,$1+$1,$6,$7*
1,1,$1+$1,$8,$9*
0 Add four rect primitives between the rounded corners*
20,1,$1+$1,$2,$3,$4,$5,0*
20,1,$1+$1,$4,$5,$6,$7,0*
20,1,$1+$1,$6,$7,$8,$9,0*
20,1,$1+$1,$8,$9,$2,$3,0*%
G04 Aperture macros list end*
%ADD10C,0.700000*%
%ADD11C,4.400000*%
%ADD12RoundRect,0.250000X0.600000X0.750000X-0.600000X0.750000X-0.600000X-0.750000X0.600000X-0.750000X0*%
%ADD13O,1.700000X2.000000*%
%ADD14C,0.600000*%
%ADD15O,2.000000X0.900000*%
%ADD16O,1.700000X0.900000*%
%ADD17C,3.200000*%
%ADD18O,6.000000X3.250000*%
%ADD19RoundRect,0.250000X-0.350000X-0.625000X0.350000X-0.625000X0.350000X0.625000X-0.350000X0.625000X0*%
%ADD20O,1.200000X1.750000*%
%ADD21RoundRect,0.250000X-0.600000X-0.750000X0.600000X-0.750000X0.600000X0.750000X-0.600000X0.750000X0*%
G04 APERTURE END LIST*
D10*
%TO.C,H4*%
X51640000Y-92170000D03*
X52123274Y-91003274D03*
X52123274Y-93336726D03*
X53290000Y-90520000D03*
D11*
X53290000Y-92170000D03*
D10*
X53290000Y-93820000D03*
X54456726Y-91003274D03*
X54456726Y-93336726D03*
X54940000Y-92170000D03*
%TD*%
D12*
%TO.C,J1*%
X91610000Y-96580000D03*
D13*
X89110000Y-96580000D03*
%TD*%
D14*
%TO.C,J3*%
X168961500Y-122091000D03*
X168961500Y-116311000D03*
D15*
X168481500Y-123521000D03*
D16*
X172651500Y-123521000D03*
D15*
X168481500Y-114881000D03*
D16*
X172651500Y-114881000D03*
%TD*%
D10*
%TO.C,H3*%
X51560000Y-133710000D03*
X52043274Y-132543274D03*
X52043274Y-134876726D03*
X53210000Y-132060000D03*
D11*
X53210000Y-133710000D03*
D10*
X53210000Y-135360000D03*
X54376726Y-132543274D03*
X54376726Y-134876726D03*
X54860000Y-133710000D03*
%TD*%
%TO.C,H2*%
X170890000Y-133400000D03*
X171373274Y-132233274D03*
X171373274Y-134566726D03*
X172540000Y-131750000D03*
D11*
X172540000Y-133400000D03*
D10*
X172540000Y-135050000D03*
X173706726Y-132233274D03*
X173706726Y-134566726D03*
X174190000Y-133400000D03*
%TD*%
D17*
%TO.C,F1*%
X132910000Y-112430000D03*
D18*
X132910000Y-93680000D03*
X132910000Y-131180000D03*
%TD*%
D19*
%TO.C,J4*%
X157200000Y-132450000D03*
D20*
X159200000Y-132450000D03*
%TD*%
D21*
%TO.C,J2*%
X89300000Y-128410000D03*
D13*
X91800000Y-128410000D03*
%TD*%
D10*
%TO.C,H1*%
X171020000Y-91860000D03*
X171503274Y-90693274D03*
X171503274Y-93026726D03*
X172670000Y-90210000D03*
D11*
X172670000Y-91860000D03*
D10*
X172670000Y-93510000D03*
X173836726Y-90693274D03*
X173836726Y-93026726D03*
X174320000Y-91860000D03*
%TD*%
M02*
